<svg width="1280" height="560" viewBox="0 0 1280 560" fill="none" xmlns="http://www.w3.org/2000/svg">
<rect width="1280" height="560" fill="#073042"/>
<path opacity="0.7" fill-rule="evenodd" clip-rule="evenodd" d="M706.691 478.15C700.062 482.463 693.382 486.118 686.755 489.07C660.576 500.731 635.566 501.309 617.528 488.832C613.408 485.982 609.8 482.554 606.709 478.621C625.826 465.818 644.399 447.651 660.05 425.181C697.688 371.144 706.024 310.022 682.764 277.881C689.409 273.554 696.105 269.889 702.748 266.93C728.927 255.269 753.937 254.691 771.975 267.168C776.085 270.01 779.684 273.428 782.77 277.348C763.637 290.153 745.046 308.331 729.382 330.819C691.732 384.873 683.403 446.017 706.691 478.15ZM681.561 276.281C714.8 254.601 749.468 249.168 773.118 265.527C777.452 268.524 781.227 272.123 784.448 276.239C817.657 254.594 852.284 249.179 875.912 265.527C880.258 268.534 884.043 272.147 887.27 276.281C920.51 254.601 955.177 249.168 978.828 265.527C983.161 268.524 986.936 272.123 990.158 276.239C1023.37 254.594 1057.99 249.179 1081.62 265.527C1085.97 268.534 1089.75 272.147 1092.98 276.281C1126.22 254.601 1160.89 249.168 1184.54 265.527C1200.78 276.764 1209.18 296.45 1210 320.19H1208C1207.18 296.898 1198.94 277.921 1183.39 267.168C1165.36 254.691 1140.35 255.269 1114.17 266.93C1107.52 269.889 1100.83 273.554 1094.18 277.881C1117.44 310.022 1109.11 371.144 1071.47 425.181C1055.82 447.651 1037.24 465.818 1018.13 478.621C1021.22 482.554 1024.83 485.982 1028.95 488.832C1046.98 501.309 1072 500.731 1098.17 489.07C1109.61 483.976 1121.2 476.791 1132.42 467.74V470.299C1095.46 499.586 1054.58 508.991 1027.8 490.473C1023.46 487.468 1019.68 483.859 1016.45 479.731C983.227 501.401 948.579 506.829 924.94 490.473C920.604 487.473 916.828 483.871 913.605 479.75C880.38 501.404 845.734 506.824 822.094 490.473C817.75 487.468 813.967 483.859 810.74 479.73C777.517 501.401 742.869 506.829 719.231 490.473C714.895 487.473 711.118 483.871 707.896 479.75C674.67 501.404 640.024 506.824 616.385 490.473C612.04 487.468 608.258 483.859 605.031 479.73C571.808 501.401 537.16 506.829 513.521 490.473C475.862 464.416 480.407 392.936 523.673 330.819C566.939 268.702 632.542 239.469 670.202 265.527C674.549 268.534 678.333 272.147 681.561 276.281ZM603.827 478.13C597.19 482.452 590.503 486.113 583.868 489.069C557.698 500.731 532.696 501.309 514.664 488.832C496.632 476.356 488.436 452.807 490.249 424.293C492.059 395.822 503.858 362.767 525.318 331.957C546.778 301.147 573.725 278.574 599.856 266.931C626.026 255.269 651.027 254.691 669.059 267.168C673.182 270.021 676.791 273.452 679.883 277.39C660.766 290.192 642.192 308.355 626.54 330.819C588.885 384.862 580.549 445.992 603.827 478.13ZM605.502 477.025C595.916 463.833 591.76 445.427 593.104 424.293C594.915 395.822 606.718 362.767 628.185 331.957C643.738 309.635 662.172 291.637 681.089 278.986C690.666 292.178 694.818 310.579 693.474 331.707C691.664 360.178 679.866 393.233 658.406 424.043C642.853 446.371 624.419 464.374 605.502 477.025ZM708.367 477.045C698.774 463.852 694.614 445.438 695.958 424.293C697.769 395.822 709.567 362.767 731.027 331.957C746.592 309.61 765.045 291.596 783.978 278.943C791.792 289.68 796.005 303.877 796.578 320.19H798.581C798.007 303.59 793.729 288.972 785.654 277.839C792.275 273.53 798.946 269.88 805.565 266.931C831.735 255.269 856.737 254.691 874.768 267.168C878.891 270.021 882.5 273.452 885.593 277.39C866.475 290.192 847.901 308.355 832.249 330.819C794.594 384.862 786.258 445.992 809.536 478.13C802.899 482.452 796.212 486.113 789.577 489.069C763.407 500.731 738.406 501.309 720.374 488.832C716.262 485.987 712.661 482.566 709.574 478.641C713.411 476.074 717.226 473.29 721 470.299V467.74C716.831 471.103 712.611 474.209 708.367 477.045ZM1002.29 320.19C1001.71 303.877 997.501 289.68 989.688 278.943C970.754 291.596 952.302 309.61 936.737 331.957C915.277 362.767 903.478 395.822 901.668 424.293C900.323 445.438 904.483 463.852 914.076 477.045C918.321 474.209 922.541 471.103 926.71 467.74V470.299C922.936 473.29 919.12 476.074 915.283 478.641C918.37 482.566 921.971 485.987 926.083 488.832C944.115 501.309 969.116 500.731 995.287 489.069C1001.92 486.113 1008.61 482.452 1015.25 478.13C991.968 445.992 1000.3 384.862 1037.96 330.819C1053.61 308.355 1072.18 290.192 1091.3 277.389C1088.21 273.452 1084.6 270.021 1080.48 267.168C1062.45 254.691 1037.44 255.269 1011.27 266.931C1004.66 269.88 997.984 273.53 991.363 277.838C999.439 288.972 1003.72 303.59 1004.29 320.19H1002.29ZM977.685 267.168C981.794 270.01 985.393 273.428 988.48 277.348C969.347 290.153 950.755 308.331 935.092 330.819C897.442 384.873 889.113 446.017 912.401 478.15C905.771 482.463 899.092 486.118 892.465 489.07C866.286 500.731 841.276 501.309 823.238 488.832C819.117 485.982 815.51 482.554 812.418 478.621C831.535 465.818 850.109 447.651 865.76 425.181C903.398 371.144 911.733 310.022 888.473 277.881C895.118 273.554 901.814 269.889 908.457 266.93C934.636 255.269 959.646 254.691 977.685 267.168ZM1069.82 424.043C1054.27 446.371 1035.84 464.374 1016.92 477.025C1007.33 463.833 1003.18 445.427 1004.52 424.293C1006.33 395.822 1018.14 362.767 1039.6 331.957C1055.16 309.635 1073.59 291.637 1092.51 278.986C1102.08 292.178 1106.24 310.579 1104.89 331.707C1103.08 360.178 1091.28 393.233 1069.82 424.043ZM811.212 477.025C830.128 464.374 848.563 446.371 864.115 424.043C885.575 393.233 897.374 360.178 899.184 331.707C900.527 310.579 896.375 292.178 886.798 278.986C867.881 291.637 849.447 309.635 833.894 331.957C812.427 362.767 800.625 395.822 798.814 424.293C797.469 445.427 801.626 463.833 811.212 477.025Z" fill="white"/>
</svg>
